<svg width="328" height="83" viewBox="0 0 328 83" fill="none" xmlns="http://www.w3.org/2000/svg">
<path d="M99.4566 14.4897H108.479C113.461 14.4897 115.481 17.098 115.481 19.9677C115.481 22.4266 114.14 24.0077 112.618 24.6344C114.086 25.1614 116.133 26.6887 116.133 29.6144C116.133 33.4386 113.148 36.022 108.757 36.022H99.4463V14.4897H99.4566ZM107.96 23.1321C110.482 23.1321 111.474 22.078 111.474 20.362C111.474 18.6542 110.231 17.6541 108.174 17.6541H103.445V23.1321H107.96ZM103.445 32.839H108.022C110.607 32.839 112.012 31.7226 112.012 29.5148C112.012 27.5851 110.731 26.3152 107.808 26.3152H103.453V32.839H103.445ZM131.827 31.347C131.827 32.9033 131.827 34.7334 131.862 36.0116H128.099C128.036 35.5759 128.009 34.6712 127.974 33.9926C127.071 35.6361 125.603 36.3872 123.43 36.3872C120.345 36.3872 118.109 34.6172 118.109 30.4797V20.03H121.972V29.7016C121.972 31.5691 122.535 33.1876 124.708 33.1876C127.042 33.1876 127.982 31.9093 127.982 28.496V20.03H131.844V31.347H131.827ZM148.351 30.9445C147.762 33.6171 145.894 36.3872 141.351 36.3872C136.556 36.3872 133.946 33.0257 133.946 28.11C133.946 23.4724 136.718 19.6461 141.574 19.6461C146.68 19.6461 148.237 23.3189 148.362 25.2154H144.561C144.249 23.7837 143.407 22.7296 141.476 22.7296C139.17 22.7296 137.899 24.7216 137.899 27.9855C137.899 31.4715 139.205 33.339 141.449 33.339C143.13 33.339 144.061 32.3741 144.534 30.9445H148.351ZM153.959 27.0559C155.202 25.4644 157.787 22.5781 159.995 20.0217H164.475L158.752 26.118L165.038 36.0116H160.62L156.14 28.6122L153.961 30.6934V36.0116H150.095V13.2738H153.959V27.0559ZM165.655 13.2738H169.518V17.0358H165.657L165.655 13.2738ZM165.655 20.0217H169.518V36.0116H165.657V20.0238L165.655 20.0217ZM172.567 24.0347C172.567 22.6673 172.567 21.2376 172.532 20.0217H176.269C176.36 20.4595 176.422 21.7647 176.422 22.2647C176.985 21.1484 178.291 19.6544 181.189 19.6544C184.336 19.6544 186.51 21.7107 186.51 25.813V36.022H182.646V26.2488C182.646 24.2568 181.93 22.825 179.812 22.825C177.539 22.825 176.422 24.292 176.422 27.2427V36.0199H172.559V24.0326H172.567V24.0347ZM203.599 34.2417C203.599 39.3731 201.604 42.5209 195.845 42.5209C190.335 42.5209 189.057 39.4354 188.87 37.5139H192.795C193.169 38.8191 194.199 39.6304 195.997 39.6304C199.144 39.6304 199.796 37.7007 199.796 34.3765V33.4469C198.957 34.9658 197.589 35.8685 195.129 35.8685C191.025 35.8685 188.502 32.507 188.502 28.0561C188.502 22.9889 191.525 19.6544 195.478 19.6544C198.34 19.6544 199.53 20.9949 199.806 21.8373C199.841 21.3082 199.931 20.3163 199.958 20.0321H203.632C203.607 21.2729 203.607 23.0781 203.607 24.6344V34.2417H203.599ZM196.194 32.7145C199.117 32.7145 199.931 30.6934 199.931 27.7345C199.931 24.7153 199.306 22.7918 196.291 22.7918C194.02 22.7918 192.492 24.5971 192.492 27.8963C192.492 30.8553 194.012 32.7145 196.194 32.7145ZM210.412 13.2738V22.078C211.153 20.8973 212.494 19.6544 215.143 19.6544C217.977 19.6544 220.499 21.2999 220.499 25.786V36.022H216.671V26.3774C216.671 24.07 215.803 22.8292 213.773 22.8292C211.163 22.8292 210.412 24.6967 210.412 27.4315V36.022H206.549V13.28H210.412V13.2738ZM236.156 32.0982C236.156 33.5901 236.282 35.6091 236.372 36.0116H232.668C232.544 35.6734 232.454 34.86 232.419 34.2686C231.854 35.2335 230.702 36.3872 227.777 36.3872C223.951 36.3872 222.332 33.8661 222.332 31.4072C222.332 27.7967 225.23 26.116 229.924 26.116H232.346V25.0266C232.346 23.7857 231.946 22.4805 229.548 22.4805C227.429 22.4805 226.999 23.4454 226.777 24.624H223.073C223.289 22.0157 224.944 19.6191 229.7 19.6461C233.868 19.6731 236.148 21.3269 236.148 25.0619V32.0961L236.156 32.0982ZM232.392 28.5499H230.3C227.464 28.5499 226.222 29.3882 226.222 31.1935C226.222 32.5007 227.088 33.5631 228.807 33.5631C231.981 33.5631 232.384 31.3823 232.384 29.023V28.5479L232.392 28.5499ZM239.17 24.1323C239.17 22.7648 239.17 21.3621 239.135 20.03H242.836C242.899 20.4325 242.961 21.4347 242.998 22.1133C243.775 20.8351 245.118 19.6544 247.513 19.6544C249.784 19.6544 251.152 20.8351 251.742 22.2378C252.645 20.8703 254.077 19.6544 256.724 19.6544C259.46 19.6544 261.794 21.2999 261.794 25.537V36.022H257.993V25.9998C257.993 24.4103 257.43 22.8022 255.383 22.8022C253.264 22.8022 252.396 24.2941 252.396 26.8775V36.022H248.595V26.1243C248.595 24.3543 248.13 22.825 246.046 22.825C243.963 22.825 242.998 24.2568 242.998 27.1161V36.0178H239.17V24.1323ZM267.187 31.2848C267.563 32.7145 268.68 33.5258 270.513 33.5258C272.381 33.5258 273.097 32.812 273.097 31.6956C273.097 30.4797 272.381 29.9796 269.861 29.3612C264.852 28.1474 263.976 26.5911 263.976 24.3833C263.976 22.051 265.622 19.6544 270.199 19.6544C274.806 19.6544 276.485 22.2025 276.647 24.4186H272.946C272.792 23.6674 272.257 22.4266 270.048 22.4266C268.304 22.4266 267.777 23.24 267.777 24.07C267.777 24.9726 268.339 25.4395 271.04 26.0911C276.209 27.2697 277.05 29.05 277.05 31.4093C277.05 34.0819 274.966 36.3893 270.388 36.3893C265.746 36.3893 263.762 34.1171 263.386 31.2848H267.187ZM282.62 13.2738V22.078C283.363 20.8973 284.704 19.6544 287.351 19.6544C290.187 19.6544 292.707 21.2999 292.707 25.786V36.022H288.881V26.3774C288.881 24.07 288.013 22.8292 285.983 22.8292C283.363 22.8292 282.62 24.6967 282.62 27.4315V36.022H278.758V13.28H282.62V13.2738ZM295.694 13.2738H299.557V17.0358H295.694V13.2738ZM295.694 20.0217H299.557V36.0116H295.694V20.0217ZM302.572 24.3481C302.572 22.5428 302.572 21.2024 302.534 20.0217H306.335C306.398 20.3952 306.425 21.8892 306.425 22.9806C307.176 21.0509 308.947 19.6814 311.656 19.6544V23.3915C308.42 23.3562 306.425 24.5078 306.425 28.772V36.022H302.561V24.3481H302.572ZM315.771 28.8259C315.771 31.2205 316.985 33.3037 319.383 33.3037C321.44 33.3037 322.092 32.3659 322.53 31.347H326.42C325.831 33.339 324.087 36.3893 319.256 36.3893C314.089 36.3893 311.88 32.4011 311.88 28.2345C311.88 23.294 314.4 19.6461 319.445 19.6461C324.828 19.6461 326.634 23.6592 326.634 27.4585C326.634 27.9855 326.634 28.3611 326.572 28.8259H315.771ZM322.735 26.367C322.7 24.2215 321.77 22.4805 319.41 22.4805C317.039 22.4805 316.082 24.0991 315.86 26.367H322.735ZM117.322 62.8974C116.419 66.7859 113.496 69.6204 108.3 69.6204C101.611 69.6204 98.3751 64.794 98.3751 58.6706C98.3751 52.7901 101.674 47.4967 108.487 47.4967C113.968 47.4967 116.733 50.6985 117.322 54.309H113.28C112.718 52.4145 111.412 50.7338 108.327 50.7338C104.186 50.7338 102.542 54.4688 102.542 58.5461C102.542 62.3704 104.036 66.4207 108.452 66.4207C111.599 66.4207 112.718 64.4267 113.28 62.9078H117.322V62.8974ZM134.009 61.3079C134.009 66.0722 131.21 69.7096 126.193 69.7096C121.337 69.7096 118.503 66.1614 118.503 61.3681C118.503 56.5168 121.399 52.9685 126.382 52.9685C131.021 52.9685 134.009 56.301 134.009 61.3079ZM122.429 61.3329C122.429 64.5699 123.895 66.6241 126.29 66.6241C128.715 66.6241 130.056 64.6051 130.056 61.3702C130.056 57.9195 128.715 56.052 126.23 56.052C123.859 56.052 122.429 57.8572 122.429 61.3329ZM149.695 64.6674C149.695 66.2236 149.695 68.0559 149.73 69.3341H145.964C145.902 68.8962 145.875 67.9936 145.84 67.313C144.937 68.9585 143.471 69.7096 141.297 69.7096C138.213 69.7096 135.977 67.9397 135.977 63.8V53.342H139.838V63.024C139.838 64.8915 140.403 66.51 142.576 66.51C144.91 66.51 145.848 65.2318 145.848 61.808V53.342H149.711V64.6674H149.695ZM152.742 57.3572C152.742 55.9877 152.742 54.558 152.707 53.3441H156.444C156.535 53.7799 156.597 55.0871 156.597 55.5851C157.16 54.4688 158.466 52.9685 161.364 52.9685C164.511 52.9685 166.684 55.0228 166.684 59.125V69.3341H162.821V59.5649C162.821 57.5709 162.105 56.1412 159.987 56.1412C157.714 56.1412 156.597 57.6062 156.597 60.5568V69.3341H152.736V57.3572H152.742ZM183.084 64.2648C182.495 66.9374 180.624 69.7096 176.082 69.7096C171.289 69.7096 168.679 66.3481 168.679 61.4304C168.679 56.7928 171.451 52.9685 176.306 52.9685C181.413 52.9685 182.968 56.6413 183.095 58.5358H179.294C178.98 57.1061 178.139 56.0416 176.207 56.0416C173.902 56.0416 172.632 58.0357 172.632 61.2976C172.632 64.7836 173.935 66.6511 176.182 66.6511C177.863 66.6511 178.791 65.6862 179.267 64.2565H183.084V64.2648ZM184.926 46.5941H188.789V50.3582H184.928L184.926 46.5941ZM184.926 53.3441H188.789V69.3341H184.928V53.342L184.926 53.3441ZM195.667 46.5941H191.803V69.3341H195.664L195.667 46.5941ZM41.519 0C18.7873 0 0.0705823 18.6542 0 41.3651L2.18182 41.3755C2.27109 20.9326 18.1521 4.22678 38.2639 2.81578C39.3466 2.72585 40.4326 2.68086 41.519 2.6809C62.9718 2.6809 80.3642 20.0653 80.3642 41.5083C80.3642 54.1202 74.346 65.321 65.0374 72.4071C59.0339 76.9829 51.8217 79.7023 44.2904 80.2299C43.379 80.2921 42.4573 80.3274 41.5294 80.3274H41.492V80.3813C40.3481 80.3544 38.5774 80.1946 38.5587 79.3272C38.5421 78.6114 39.086 78.0304 39.6133 77.6195C40.3191 77.0655 41.1515 76.6713 41.9757 76.3227C42.7625 75.9844 43.5659 75.6794 44.3796 75.3931C44.641 75.3177 44.8845 75.1907 45.0958 75.0196C45.2497 74.8844 45.3538 74.7016 45.3914 74.5003C45.429 74.2991 45.3981 74.091 45.3034 73.9094C45.0689 73.4799 44.5769 73.2309 44.1471 73.0421C42.4033 72.3013 33.9086 72.4528 32.8457 72.4715H32.7377C32.773 72.4798 42.4739 73.5608 42.4843 74.1522C42.503 74.7498 35.5465 76.1089 35.4198 80.4249C35.3846 81.5973 36.6633 81.9625 37.1553 82.1327C38.8638 82.7137 39.6236 82.9544 41.3944 83H42.4033C43.7647 82.9929 45.124 82.8944 46.4722 82.7054C66.9514 80.2299 83.0463 62.6028 83.0463 41.5083C83.038 18.7372 64.2942 0 41.519 0Z" fill="black"/>
<path d="M39.5883 57.0623L40.9377 56.4356C40.9377 56.4356 26.487 41.1325 2.1278 44.8882L0.124512 45.1103C1.06229 53.5459 4.56431 61.4915 10.1587 67.8766C15.7532 74.2617 23.1711 78.7794 31.4132 80.821L32.0568 78.2273C17.6538 74.679 6.63677 63.196 3.48132 48.9843C7.67474 48.063 21.7476 46.2121 39.5883 57.0623Z" fill="black"/>
<path d="M77.9683 37.6821C77.8956 37.568 77.8853 37.3086 77.9579 37.2194C78.207 36.9144 78.1448 36.6467 77.9413 36.3894C77.7441 36.1466 77.6009 35.8956 77.6195 35.5573C77.6278 35.4328 77.5365 35.2253 77.4389 35.1818C77.0902 35.0033 77.1006 34.6983 77.1089 34.3684C77.1172 34.1443 77.0279 33.9036 77.0736 33.6878C77.2064 33.0258 76.457 33.0632 76.3221 32.6088C76.3034 32.5444 76.1788 32.5175 76.0979 32.4822C76.0813 32.4718 76.0439 32.4822 76.0273 32.4718C75.7159 32.3307 75.392 32.2145 75.0869 32.0361C74.8731 31.9116 74.7028 31.7227 74.5056 31.5609C74.2378 30.9176 74.2108 30.899 73.6919 30.9259C73.3535 30.2744 73.0753 30.872 72.7639 30.9986C72.7016 30.9093 72.6643 30.7828 72.5833 30.7392C72.3425 30.5939 72.3155 30.1125 71.9501 30.2121C71.6367 30.291 71.4125 30.2827 71.2796 29.9424C71.2526 29.8801 71.1633 29.8366 71.099 29.7992C70.8312 29.6477 70.5634 29.5046 70.2229 29.3178C69.7413 29.4693 69.1601 29.6394 68.695 29.7909C68.4169 29.7826 68.1491 29.6934 68.0764 29.7743C67.765 30.1582 67.4951 30.5773 67.246 31.0069C67.0675 31.3015 66.5132 31.4094 66.2973 31.177C66.1001 31.2662 65.9236 31.4011 65.7347 31.426C65.4939 31.4634 65.4213 31.5879 65.3237 31.8016C65.1991 32.0879 65.0289 32.4656 64.786 32.5527C64.2857 32.7499 64.3563 33.3412 63.9723 33.6255C63.8477 33.7147 63.802 33.9119 63.7501 34.1173C63.8207 34.1526 63.9183 34.1795 63.9287 34.2252C64.0532 34.6817 64.8047 34.6443 64.6781 35.3063C64.6345 35.52 64.7154 35.7628 64.7154 35.9848C64.7051 36.3168 64.6968 36.6197 65.0538 36.7982C65.1535 36.8521 65.2407 37.0472 65.2344 37.1738C65.2157 37.5141 65.3673 37.7548 65.5562 37.9955C65.7617 38.2548 65.824 38.5246 65.5728 38.8275C65.5022 38.9168 65.5105 39.1761 65.5832 39.2923C65.8053 39.6679 66.0918 40.0082 65.7077 40.473C65.6351 40.5622 65.6725 40.7594 65.6538 40.9295C65.3507 40.8673 65.2427 41.027 65.2427 41.3217C65.2427 41.4026 65.1805 41.5271 65.1182 41.5541C64.7154 41.7242 64.7694 42.0998 64.7321 42.438C64.7154 42.5729 64.6615 42.7597 64.5805 42.8136C64.7777 43.0626 65.0642 43.3324 65.4835 43.0626C65.5458 43.0211 65.7887 43.1186 65.8157 43.1892C65.9403 43.6644 67.246 44.7185 67.6571 44.6998C68.2923 44.6728 68.9089 44.2889 69.5607 44.567C69.5254 45.7912 69.4631 47.5882 69.3822 48.3912C69.3199 49.0448 69.187 49.5719 69.0334 50.0014C65.7887 49.8769 61.8901 50.0637 57.8648 51.0182C57.751 50.7326 57.679 50.4321 57.651 50.1259C57.57 49.2399 57.5264 47.1939 57.4994 46.0236C57.57 46.0236 57.6593 45.9967 57.7403 45.9884C57.9188 45.978 58.8675 46.0402 59.1893 45.8535L59.3221 46.1232C59.565 46.1564 59.7871 46.1129 59.9034 46.2187C60.1006 46.3888 60.2169 46.3722 60.3954 46.2187C60.5033 46.1295 60.6736 46.1025 60.8064 46.0402C60.9227 45.9967 61.1116 45.9697 61.1386 45.8805C61.2631 45.4696 61.6659 45.4592 61.9171 45.2538C62.0686 45.1293 62.1932 44.9675 62.3281 44.8243C62.3904 44.762 62.434 44.6728 62.5149 44.6375C63.0505 44.4134 63.3287 44.0296 63.2664 43.405C63.2394 43.1456 63.3017 42.9402 63.5695 42.824C63.5799 42.824 63.5799 42.8136 63.5882 42.8136C63.6692 42.7514 63.7231 42.5646 63.7397 42.4401C63.7854 42.0998 63.7314 41.7242 64.1259 41.5541C64.1882 41.5271 64.2504 41.4026 64.2504 41.3217C64.2504 41.027 64.3563 40.8756 64.6615 40.9274C64.6802 40.749 64.6428 40.5622 64.7154 40.4709C65.0891 40.0165 64.8047 39.6762 64.5805 39.2923C64.5099 39.1761 64.4995 38.9188 64.5722 38.8275C64.8213 38.5246 64.759 38.2548 64.5535 37.9975C64.3667 37.7548 64.2151 37.5141 64.2318 37.1738C64.2421 37.0493 64.1508 36.8418 64.0449 36.8003C63.6962 36.6197 63.7045 36.3168 63.7128 35.9848C63.7128 35.7628 63.6339 35.52 63.6775 35.3063C63.802 34.6443 63.0609 34.6796 62.926 34.2252C62.9094 34.1712 62.818 34.1443 62.7474 34.1173C62.7391 34.109 62.7205 34.109 62.7122 34.0986C62.6935 34.0903 62.6582 34.0986 62.6395 34.0903C62.3281 33.9471 62.0063 33.8309 61.7012 33.6546C61.4873 33.528 61.3171 33.3392 61.1199 33.1773C60.85 32.5341 60.8251 32.5175 60.3061 32.5444C59.9657 31.8929 59.6896 32.4905 59.3761 32.615C59.3138 32.5258 59.2785 32.4013 59.1976 32.3577C58.9568 32.2124 58.9381 31.731 58.5727 31.8286C58.2592 31.9116 58.035 31.9012 57.9001 31.5609C57.8752 31.4986 57.7839 31.453 57.7216 31.4177C57.4538 31.2662 57.1777 31.1231 56.8455 30.9363C56.3639 31.0878 55.7826 31.2579 55.3176 31.4094C55.0394 31.4011 54.7717 31.3098 54.699 31.3907C54.3876 31.7746 54.1177 32.1958 53.8686 32.6254C53.688 32.92 53.1254 33.0258 52.9199 32.7955C52.7227 32.8847 52.5462 33.0175 52.3573 33.0445C52.1144 33.0798 52.0439 33.2064 51.9463 33.4201C51.8217 33.7064 51.6494 34.082 51.4086 34.1712C50.9083 34.3684 50.9706 34.9577 50.5948 35.244C50.381 35.4038 50.3893 35.8603 50.2378 36.1466C50.1328 36.335 49.9737 36.4875 49.7811 36.5845C49.4489 36.7463 49.3617 36.8791 49.4863 37.2547C49.5216 37.3792 49.5942 37.5037 49.5839 37.622C49.5299 38.0328 49.4323 38.4437 49.3783 38.8545C49.37 38.8815 49.37 38.9168 49.37 38.9437C49.2725 39.614 49.1728 40.2842 49.1209 40.9565C49.1002 41.2138 49.1832 41.4918 49.2538 41.7512C49.37 42.1704 49.6378 43.1996 49.8537 43.1996C50.1651 43.1996 50.4246 43.2431 50.2544 43.7183C50.6571 43.7536 50.8626 43.9756 51.1055 44.2723C51.311 44.5296 51.6141 45.0318 52.1435 44.6915C52.1788 44.6728 52.2494 44.6832 52.32 44.7102C52.3926 44.7351 52.4653 44.7807 52.4736 44.816C52.5981 45.2912 53.9039 46.3453 54.3149 46.3266C54.7716 46.31 55.9342 46.1025 56.7293 46.0236C56.694 47.2292 56.6317 49.3021 56.5424 50.1882C56.4968 50.6716 56.4075 51.0804 56.3099 51.4394C55.0851 51.7963 53.8686 52.2279 52.6521 52.7529C50.2626 53.7962 47.8955 54.89 45.5524 56.0334C45.3904 55.6931 45.2202 55.1308 45.1309 54.1742C45.0604 53.4148 45.0147 51.6095 44.9981 50.653C45.1662 50.6447 45.9738 50.6986 46.2395 50.5368C46.3018 50.653 46.3474 50.7339 46.3557 50.7692C46.5633 50.7961 46.7585 50.7609 46.8581 50.8501C47.0263 50.9933 47.1259 50.9746 47.2858 50.8501C47.3854 50.7692 47.5287 50.7505 47.6449 50.6986C47.7425 50.6613 47.9127 50.6364 47.9293 50.5637C48.0456 50.2234 48.386 50.2151 48.5998 50.0367C48.7244 49.9288 48.8324 49.7939 48.959 49.6798C49.013 49.6258 49.0566 49.5449 49.1188 49.5262C49.5838 49.3395 49.8247 49.0179 49.7728 48.4991C49.7458 48.2833 49.7997 48.1152 50.0323 48.0156C50.1132 47.9804 50.1568 47.8019 50.1755 47.6836C50.2108 47.3994 50.1651 47.086 50.5056 46.9429C50.5595 46.9159 50.6135 46.8101 50.6135 46.7478C50.6135 46.4967 50.7028 46.3722 50.9706 46.4262C50.9893 46.2726 50.9519 46.1212 51.0163 46.0402C51.3007 45.702 51.1491 45.4426 50.9706 45.1729C50.9083 45.1563 50.846 45.1376 50.819 45.1563C50.3623 45.4323 50.0925 45.0131 49.9243 44.8077C49.7188 44.5587 49.5403 44.3699 49.1915 44.3429C49.3347 43.9486 49.1188 43.9134 48.8427 43.9134C48.6559 43.9134 48.4213 43.046 48.3237 42.6974C48.2615 42.4837 48.1888 42.2513 48.2075 42.0272C48.2615 41.4649 48.3424 40.9108 48.4317 40.3464C48.4213 40.3381 48.413 40.3381 48.4047 40.3381C48.2179 40.2406 48.0643 40.0684 47.9044 39.9356C47.6698 39.4002 47.6532 39.3816 47.1986 39.4085C46.9017 38.8628 46.6692 39.365 46.3931 39.4708C46.3391 39.3919 46.3039 39.2923 46.2395 39.2571C46.0257 39.1409 46.0174 38.7383 45.6956 38.8089C45.4257 38.8711 45.2306 38.8711 45.1143 38.5868C45.0956 38.5329 45.0147 38.4976 44.9607 38.4706C44.7282 38.3461 44.4957 38.2216 44.2009 38.0681C43.7816 38.1926 43.2792 38.3461 42.8785 38.4623C42.6356 38.452 42.4031 38.371 42.3409 38.452C42.0731 38.7736 41.8406 39.1222 41.6164 39.4812C41.4648 39.7302 40.9811 39.8194 40.7943 39.6243C40.6241 39.6949 40.4725 39.8111 40.3023 39.8298C40.0885 39.8547 40.0324 39.9626 39.9452 40.141C39.8373 40.3838 39.6961 40.695 39.4885 40.776C39.0526 40.9378 39.1148 41.4379 38.7827 41.6703C38.5958 41.8052 38.6042 42.1787 38.4713 42.4297C38.3781 42.5915 38.2365 42.7199 38.0665 42.797C37.78 42.9298 37.7011 43.046 37.807 43.351C37.8444 43.4486 37.9066 43.5648 37.89 43.654C37.8444 44.0026 37.7634 44.3429 37.7094 44.6915C37.6202 45.2725 37.5309 45.8618 37.4769 46.4428C37.4582 46.6586 37.5309 46.891 37.5932 47.113C37.6907 47.4616 37.9253 48.329 38.1122 48.329C38.3883 48.329 38.6042 48.3642 38.4609 48.7585C38.8097 48.7938 38.9882 48.9722 39.1937 49.2233C39.3723 49.437 39.6401 49.8582 40.0864 49.5719C40.1424 49.5366 40.3563 49.6155 40.3749 49.6798C40.4808 50.074 41.6164 50.958 41.9734 50.9393C42.4218 50.9206 43.6383 50.7069 44.3089 50.6696C44.2736 51.6635 44.2279 53.477 44.1469 54.2386C44.0037 55.6496 43.7006 56.5522 43.4598 57.0606C34.1512 61.7003 25.4219 66.7155 25.4219 66.7155H27.5601C29.7772 65.4726 43.3871 58.9841 52.9905 56.7576C62.5959 54.5311 75.8384 55.7824 75.8384 55.7824L77.2604 51.0721C77.2604 51.0721 74.7755 50.4206 70.991 50.1176C70.7565 49.5501 70.6122 48.9494 70.5634 48.3373C70.4824 47.472 70.4388 45.4696 70.4118 44.291C70.5587 44.3045 70.7028 44.3394 70.8395 44.3948C70.9288 44.4321 71.0367 44.3782 71.1447 44.3699C71.3232 44.3595 71.5474 44.2806 71.672 44.3595C72.0124 44.5836 72.2802 44.4217 72.5937 44.235L72.7265 44.513C72.959 44.5483 73.1832 44.5027 73.3078 44.6023C73.505 44.7724 73.6213 44.7537 73.7998 44.6023C73.916 44.513 74.078 44.4861 74.2108 44.4238C74.3271 44.3782 74.516 44.3512 74.543 44.262C74.6675 43.8511 75.0703 43.8428 75.3194 43.6374C75.473 43.5129 75.5976 43.351 75.7325 43.2079C75.7948 43.1456 75.8384 43.0564 75.9193 43.0211C76.457 42.797 76.7331 42.4111 76.6708 41.7865C76.6438 41.5271 76.7061 41.33 76.9739 41.2055C77.0653 41.1598 77.1275 40.9565 77.1442 40.8112C77.1898 40.473 77.1359 40.0974 77.5282 39.9273C77.5905 39.9003 77.6528 39.7758 77.6528 39.6949C77.6528 39.4002 77.7628 39.2488 78.0659 39.3006C78.0846 39.1222 78.0472 38.9354 78.1199 38.8441C78.4769 38.398 78.1904 38.0598 77.9683 37.6821ZM41.5541 25.3214C41.5188 25.2508 41.1347 25.2425 40.9292 25.1699C40.751 25.0628 40.5829 24.9399 40.4268 24.8026C40.4268 24.8026 40.321 24.7134 40.2836 24.7134C40.24 24.7134 39.9182 25.2425 39.9992 25.3131C40.0781 25.3753 40.321 25.4106 40.6324 25.4106C40.9105 25.421 41.3486 25.4479 41.5188 25.4106C41.5541 25.3836 41.5728 25.3566 41.5541 25.3214Z" fill="black"/>
<path d="M39.8833 25.4808C39.8563 25.429 39.8376 25.3667 39.821 25.3128C39.8132 25.28 39.8042 25.2474 39.794 25.2152C39.7053 25.0517 39.5871 24.9061 39.4453 24.7857C39.4258 24.7953 39.4046 24.8009 39.383 24.8023C39.3 24.8127 39.2377 24.7774 39.2294 24.7318C39.2211 24.6778 39.2833 24.6342 39.3643 24.6239C39.3864 24.6196 39.4092 24.6205 39.4308 24.6266C39.4524 24.6328 39.4723 24.6439 39.4889 24.6591L40.0888 24.4807C39.8502 24.3862 39.5934 24.3464 39.3373 24.3645C38.864 24.3915 38.3886 24.6239 38.0668 24.8127C38.038 24.8225 38.008 24.8281 37.9776 24.8293C37.7015 24.8749 32.7815 25.3584 32.4514 25.2941C32.113 25.2318 30.4315 24.8749 30.3132 24.6073C30.199 24.3479 31.5484 21.032 31.648 20.8349C32.1213 19.8161 32.6299 18.3677 32.6299 18.3677C32.6299 18.3677 33.3274 15.0789 32.7752 14.944C32.6652 14.917 32.4078 15.9898 32.1317 16.1786C31.8805 16.3467 31.8078 15.2117 31.4778 15.4897C31.2972 15.6412 31.3325 16.6787 31.1186 16.3197C30.4834 15.2573 30.5913 16.714 30.4481 16.8219C29.3665 17.6083 28.4365 18.5379 28.2476 18.9031C27.7909 19.6459 26.7737 22.4887 26.5661 22.4804C26.1301 22.47 22.2585 18.2889 21.9886 18.1167C21.7291 17.9382 19.8794 15.7221 19.539 13.8629C19.4497 13.3794 19.0283 13.3898 19.1819 15.83C19.1985 16.133 18.3059 14.6058 18.1896 15.1141C18.0547 15.7034 18.6256 16.2575 18.4304 16.714C18.3951 16.8032 17.7246 16.411 17.7246 16.7223C17.7246 19.2268 20.4856 24.6882 22.5616 25.4746C24.6375 26.261 19.2089 27.0558 18.9307 27.172C18.6546 27.2882 18.4491 27.5911 18.8145 27.672C19.6033 27.7965 18.7522 28.2717 19.047 28.4771C19.1985 28.5124 19.3688 28.5207 19.4684 28.6286C19.566 28.7718 19.1715 29.2802 19.3335 29.3528C19.4933 29.4233 21.8454 28.6016 22.7941 28.4937C23.2591 28.4419 24.7351 28.8257 25.9869 28.4937C27.2387 28.1638 29.9021 26.6179 30.4668 26.5204C31.0294 26.4208 38.4426 25.8564 38.4426 25.8564C39.0965 25.9187 39.9103 25.7236 40.0888 25.6697C40.0265 25.68 39.9435 25.6074 39.8812 25.4829L39.8833 25.4808Z" fill="black"/>
</svg>
