<svg width="200" height="200" viewBox="0 0 200 200" fill="none" xmlns="http://www.w3.org/2000/svg">
<path fill-rule="evenodd" clip-rule="evenodd" d="M200 100C200 155.228 155.228 200 100 200C44.7715 200 0 155.228 0 100C0 44.7715 44.7715 0 100 0C155.228 0 200 44.7715 200 100ZM125.976 54.4304C125.976 63.8681 118.326 71.5189 108.888 71.5189C99.45 71.5189 91.7992 63.8681 91.7992 54.4304C91.7992 44.9926 99.45 37.3418 108.888 37.3418C118.326 37.3418 125.976 44.9926 125.976 54.4304ZM113.021 116.508L113.021 116.508C110.281 126.804 107.054 138.929 108.116 142.615C108.224 142.809 108.316 142.981 108.39 143.132C109.643 145.681 111.877 146.088 113.834 146.444C115.885 146.818 117.634 147.136 117.634 149.808C117.634 156.912 92.19 161.196 86.3552 161.196C80.5204 161.196 75.7904 156.466 75.7904 150.632C75.7904 148.401 77.392 142.383 79.2073 135.564C81.9478 125.268 85.1751 113.143 84.113 109.456C84.0046 109.263 83.9129 109.09 83.8389 108.94C82.5851 106.391 80.3519 105.984 78.3946 105.628C76.3432 105.254 74.595 104.936 74.595 102.264C74.595 95.1598 100.039 90.8752 105.873 90.8752C111.708 90.8752 116.438 95.6052 116.438 101.44C116.438 103.671 114.837 109.688 113.021 116.508Z" fill="#1D70B8"/>
</svg>
