<svg width="271" height="188" viewBox="0 0 271 188" fill="none" xmlns="http://www.w3.org/2000/svg">
<path d="M32.7456 173.572C32.5278 175.758 34.2698 177.725 36.4472 177.725C36.6649 177.725 36.8827 177.725 37.1004 177.725C40.1488 177.725 41.673 176.195 41.673 173.353C41.673 171.823 40.802 170.511 39.4956 169.637L35.5762 166.795C34.2698 165.702 33.3988 164.172 33.3988 162.423C33.3988 159.8 34.7053 157.177 36.8827 155.646C39.0601 153.898 41.673 152.805 44.5037 152.805C47.9875 152.805 49.7295 153.679 49.7295 155.209C49.7295 156.302 48.8585 157.395 47.3343 158.27C46.4633 156.521 44.5037 155.646 42.544 155.646C39.9311 155.646 38.6246 156.739 38.6246 159.144C38.6246 159.8 38.8424 160.237 39.2778 160.893C41.0198 162.642 42.9795 164.172 44.9391 165.702C46.2456 167.014 47.1166 168.763 47.1166 170.511C47.1166 173.353 45.8101 176.195 43.4149 177.944C41.0198 179.911 38.1891 181.005 35.1408 181.005C33.6166 181.005 32.0924 180.786 30.7859 180.13C29.4795 179.474 28.8262 178.818 28.8262 177.944C29.044 175.977 30.3504 174.665 32.7456 173.572ZM56.2617 171.167C56.2617 172.042 56.044 172.698 56.044 173.353C56.044 175.977 57.1327 177.288 59.3101 177.288C61.923 177.07 64.3182 175.977 66.0601 174.228C66.2778 174.665 66.4956 175.102 66.4956 175.758C66.4956 177.07 65.4069 178.381 63.4472 179.256C61.4875 180.13 59.5278 180.567 57.3504 180.567C52.5601 180.567 49.9472 178.381 49.9472 174.228C49.9472 170.293 51.2537 166.358 53.8666 163.298C56.044 160.237 59.5278 158.488 63.2295 158.488C66.2778 158.488 67.802 159.8 67.802 162.423C67.802 165.046 66.4956 167.451 64.5359 168.981C61.923 170.293 59.0924 171.167 56.2617 171.167ZM56.4795 168.325C60.6166 168.325 62.5762 166.577 62.5762 163.079C62.5762 161.549 62.1408 160.893 61.052 160.893C59.0924 161.111 57.5682 163.516 56.4795 168.325ZM74.9875 179.693C73.8988 179.911 73.0279 180.13 71.9391 180.13C70.1972 180.13 69.3262 179.474 69.3262 178.163C69.544 176.414 69.7617 174.665 70.4149 173.135C71.5037 168.981 72.3746 164.828 72.5924 160.674C72.5924 160.237 72.5924 159.581 72.3746 159.144C73.4633 158.707 74.7698 158.488 75.8585 158.488C77.3827 158.488 78.2537 159.144 78.2537 160.456C78.0359 162.642 77.6004 164.828 76.9472 166.795C79.9956 161.111 82.6085 158.27 84.7859 158.27C85.8746 158.27 86.5279 158.707 86.5279 159.8C86.3101 162.204 85.4391 164.391 83.6972 166.139C83.2617 165.484 82.8262 165.046 82.3908 165.046C81.0843 165.046 79.5601 166.795 77.6004 170.511C76.0762 172.916 75.2053 175.539 74.9875 178.381C74.7698 178.818 74.7698 179.256 74.9875 179.693ZM99.8101 158.707C103.076 158.925 104.818 159.581 104.818 161.111C104.818 162.642 103.294 165.484 100.246 170.293C98.5037 173.353 96.1085 176.414 93.4956 178.818C91.9714 179.911 90.4472 180.567 88.4875 180.786V179.037V178.6C88.2698 175.102 88.052 171.823 87.6166 168.544C86.9633 163.735 86.3101 161.111 85.6569 160.237C86.9633 159.363 88.4875 158.707 90.0117 158.707C91.7537 158.707 92.6246 160.018 92.8424 162.86C92.8424 163.735 92.8424 164.609 92.8424 165.702C93.0601 168.981 93.0601 172.042 93.0601 174.884L97.1972 168.107C98.7214 165.921 99.5924 163.516 99.8101 160.893C100.028 159.8 99.8101 159.363 99.8101 158.707ZM107.649 159.363C108.955 158.925 110.262 158.707 111.568 158.488C113.092 158.488 113.963 159.144 113.963 160.237C113.963 160.893 113.746 161.549 113.746 162.204C112.439 166.795 111.568 171.386 111.133 175.977C111.133 177.07 111.35 178.163 112.004 179.037C110.915 179.693 109.826 180.13 108.52 180.13C106.56 180.13 105.471 179.256 105.471 177.288C105.689 174.446 106.125 171.823 106.778 169.2C107.431 166.577 108.084 163.735 108.084 161.111C108.084 160.456 107.867 159.8 107.649 159.363ZM114.617 155.209C113.746 155.646 112.657 155.865 111.568 156.084C110.262 156.084 109.391 155.646 109.391 154.991C109.391 154.553 109.391 154.116 109.608 153.898C109.608 153.46 109.826 153.023 109.826 152.805C109.826 152.586 109.826 152.367 109.608 152.149C110.697 151.711 111.786 151.493 112.875 151.493C114.399 151.493 115.052 152.149 115.052 153.242C115.052 153.679 115.052 154.553 114.617 155.209ZM123.326 166.795C126.157 161.111 128.988 158.27 131.818 158.27C133.342 158.051 134.867 159.144 135.084 160.674C135.084 160.893 135.084 161.33 135.084 161.549C134.867 163.953 134.649 166.358 133.996 168.763C133.342 171.167 132.907 173.572 132.907 175.977C132.907 177.07 133.125 178.163 133.778 179.037C132.689 179.693 131.383 180.13 130.294 180.13C128.988 180.349 127.681 179.474 127.463 177.944C127.463 177.725 127.463 177.507 127.463 177.288C127.463 175.539 127.681 173.791 128.117 172.042C129.205 166.795 129.641 163.953 129.641 163.516C129.641 163.079 129.423 162.642 129.205 162.642C128.988 162.642 127.028 164.609 124.85 168.763C122.891 171.604 121.802 174.884 121.367 178.163C121.367 178.6 121.367 179.037 121.584 179.693C120.496 179.911 119.625 180.13 118.536 180.13C116.794 180.13 115.923 179.474 115.923 178.163C115.923 177.288 116.141 176.414 116.358 175.539L117.012 173.135C118.1 168.981 118.754 164.828 119.189 160.674C119.189 160.018 119.189 159.581 118.971 158.925C120.06 158.488 121.367 158.27 122.455 158.27C123.979 158.27 124.85 158.925 124.85 160.237C124.415 162.642 123.979 164.828 123.326 166.795ZM138.133 178.6C139.221 180.786 141.617 182.316 144.012 182.316C145.318 182.316 146.407 181.879 147.278 181.005C148.149 180.13 149.02 176.632 150.109 170.511C147.06 175.102 144.229 177.288 141.617 177.288C139.004 177.288 137.697 175.321 137.697 171.604C137.697 168.325 138.786 165.046 140.746 162.423C142.488 160.018 145.1 158.488 148.149 158.488C149.673 158.488 150.979 158.925 152.286 159.581C152.721 158.925 153.592 158.488 154.463 158.707C155.77 158.707 156.858 158.925 157.947 159.581C156.858 161.986 156.205 164.391 155.988 167.014C155.552 171.386 154.463 175.977 152.939 180.13C152.068 181.879 150.762 183.191 149.238 184.284C147.496 185.377 145.536 185.814 143.359 185.814C141.617 185.814 139.657 185.377 137.915 184.721C135.955 184.065 135.084 183.191 135.084 182.098C135.084 181.005 136.173 179.474 138.133 178.6ZM151.415 164.172C150.762 162.86 149.455 161.767 147.713 161.767C146.407 161.767 145.318 162.642 144.447 164.609C143.576 166.577 143.141 168.763 143.359 170.949C143.359 172.042 143.576 172.698 144.229 172.698C146.189 172.479 148.584 169.637 151.415 164.172ZM176.673 168.107C175.802 161.111 174.06 156.958 171.665 155.646C172.754 154.116 174.496 153.023 176.455 153.023C177.544 153.023 178.633 153.679 179.068 154.772C180.157 157.614 180.592 160.674 181.028 163.735C185.165 156.739 188.431 153.023 191.262 153.023C192.568 153.023 193.439 153.898 194.092 155.428C192.133 156.084 190.609 157.177 189.302 158.488C187.125 160.674 185.165 163.079 183.423 165.702C181.246 169.418 180.157 173.572 180.375 177.944C180.375 178.381 180.375 179.037 180.592 179.474C179.286 180.13 177.979 180.349 176.455 180.567C174.931 180.567 174.278 180.13 174.278 179.037C174.278 178.163 174.496 177.288 174.713 176.414C175.584 173.791 176.238 170.949 176.673 168.107ZM198.883 180.786C196.923 180.786 194.963 180.13 193.657 178.818C192.35 177.288 191.479 175.321 191.697 173.353C191.697 169.637 193.004 166.139 195.181 163.298C197.141 160.456 200.189 158.707 203.673 158.707C205.633 158.707 207.592 159.363 208.899 160.893C210.205 162.423 210.859 164.391 210.859 166.358C210.859 170.074 209.552 173.572 207.375 176.414C205.197 179.037 202.149 180.567 198.883 180.786ZM199.971 177.507C201.496 177.507 202.584 176.195 203.455 173.572C204.326 170.949 204.762 168.325 204.762 165.702C204.762 163.079 203.891 161.549 202.367 161.549C200.842 161.549 199.754 162.86 198.665 165.484C197.794 168.107 197.358 170.73 197.141 173.572C197.358 176.195 198.229 177.507 199.971 177.507ZM226.536 159.144C227.625 158.925 228.496 158.707 229.584 158.707C231.326 158.707 232.197 159.363 232.197 160.674C232.197 161.549 231.979 162.423 231.762 163.298L231.108 165.921C230.238 169.2 229.802 172.26 229.584 175.539C229.584 176.851 229.802 178.163 230.455 179.474C229.584 180.349 228.496 180.786 227.189 180.567C225.012 180.567 223.923 179.256 223.923 176.851C223.923 175.321 224.141 173.791 224.359 172.042C221.528 177.725 218.697 180.567 215.867 180.567C214.342 180.786 212.818 179.693 212.6 177.944C212.6 177.725 212.6 177.288 212.6 177.07C212.818 174.228 213.254 171.605 213.907 168.981C214.56 166.358 214.996 163.516 215.213 160.893C215.213 160.456 215.213 159.8 214.996 159.363C216.084 158.925 217.391 158.707 218.479 158.707C220.004 158.707 220.875 159.363 220.875 160.674C220.875 161.549 220.657 162.423 220.439 163.298C219.35 167.232 218.697 171.167 218.262 175.321C218.262 175.977 218.479 176.195 218.697 176.195C219.35 176.195 220.875 174.228 223.052 170.074C225.012 167.232 226.1 163.953 226.536 160.674C226.754 160.018 226.754 159.581 226.536 159.144ZM177.979 58.1487C177.762 57.9301 177.762 57.7115 177.544 57.4929C177.108 57.0557 176.891 56.3998 176.673 55.744C175.367 52.2464 174.496 48.5301 173.625 44.8138L173.407 43.9394C173.189 42.1905 172.536 38.6929 172.318 36.2882L170.794 20.5487C170.794 18.7998 169.052 10.0557 169.052 9.18124C168.399 6.12077 166.004 3.93473 162.955 3.49752C162.084 3.49752 161.649 3.49752 160.778 3.49752C154.028 3.49752 149.02 11.8045 145.536 17.2696C144.883 18.3626 144.229 19.2371 143.794 19.8929C143.358 20.5487 142.052 22.7347 141.181 24.0464L140.31 25.5766C139.221 27.544 137.479 30.6045 135.738 33.4464L130.294 43.7208L128.988 43.065L134.649 32.5719C136.391 29.9487 138.133 26.8882 139.221 24.9208L140.092 23.3905C140.746 22.0789 142.27 20.1115 142.705 19.2371C143.141 18.3626 143.794 17.4882 144.447 16.6138C148.149 10.7115 153.375 1.96729 160.778 1.96729C161.431 1.96729 162.084 1.96729 162.955 1.96729C166.657 2.40449 169.488 5.24635 170.358 8.74403C170.358 8.74403 172.1 18.3626 172.1 20.3301L173.625 35.851C174.06 38.4743 174.496 41.9719 174.713 43.5022L174.931 44.3766C175.584 47.8743 176.673 51.3719 177.762 54.8696V55.0882C177.979 55.5254 178.197 56.1812 178.415 56.6185C178.633 56.8371 178.633 57.0557 178.85 57.4929L177.979 58.1487ZM188.867 61.4278L188.431 60.1161C190.608 59.2417 192.568 58.1487 194.31 56.6185C202.367 48.0929 209.77 38.9115 216.738 29.5115C220.657 24.265 224.794 18.7998 228.931 13.9905C229.584 13.3347 230.455 13.3347 231.108 13.9905C231.544 14.4278 231.544 15.0836 231.326 15.7394C231.326 16.1766 231.109 16.6138 230.891 17.051V17.2696C231.109 17.051 231.326 16.8324 231.326 16.8324C231.979 15.958 232.633 15.5208 233.068 15.5208C235.246 15.7394 235.246 17.2696 235.246 17.9254V18.144C235.028 19.2371 234.81 20.3301 234.375 21.2045C235.463 21.4231 236.117 22.5161 236.117 23.6091C235.463 25.5766 234.592 27.3254 233.504 29.0743C233.286 29.2929 233.068 29.7301 233.068 29.9487L233.504 29.7301C234.375 29.5115 235.246 29.7301 235.899 30.3859C236.334 30.8231 236.77 31.2603 236.77 31.9161C236.552 33.0091 235.899 34.1022 235.028 34.9766L235.246 35.1952C235.681 34.9766 236.117 34.758 236.552 34.758H236.77L236.988 34.9766C237.641 35.4138 237.858 36.0696 237.858 36.944V37.1626C237.858 38.6929 235.681 41.5347 232.633 45.0324L232.415 45.251H233.068C233.504 45.251 233.939 45.4696 234.157 45.9068C234.157 45.9068 234.157 46.1254 234.81 46.344C235.028 46.5626 235.246 46.7812 235.246 46.9998V47.2185L235.899 46.7812C237.859 45.0324 238.512 44.5952 239.165 44.8138L239.6 45.0324V45.4696C239.6 45.4696 239.6 45.6882 239.818 45.6882C240.036 45.9068 240.254 46.344 240.254 46.7812C240.254 48.9673 237.641 53.1208 232.197 59.6789L230.891 59.0231C237.859 50.4975 238.729 47.8743 238.729 46.9998C238.729 46.9998 238.729 46.9998 238.512 46.7812L238.294 46.5626C237.859 46.7812 236.988 47.4371 236.552 47.8743C234.81 49.4045 234.157 49.8417 233.504 49.8417C233.286 49.8417 233.286 49.8417 233.068 49.6231C232.85 49.4045 232.633 49.1859 232.633 48.9673C232.633 48.3115 232.85 47.8743 233.286 47.4371C232.85 47.2185 232.633 46.9998 232.415 46.5626C231.544 46.7812 230.891 46.9998 230.238 47.4371L229.149 46.5626C229.802 45.6882 230.455 44.8138 231.326 43.9394C232.85 41.9719 236.117 38.0371 236.117 36.944V36.7254C236.117 36.2882 236.117 36.2882 235.899 36.0696C235.681 35.851 235.681 36.0696 235.681 36.2882C235.463 36.5068 235.246 36.7254 235.028 36.944L234.157 37.3812V36.2882C234.157 36.0696 234.157 35.851 234.157 35.851C233.939 35.851 233.721 35.851 233.504 35.851L231.544 36.2882L232.85 34.758C233.721 33.8836 234.592 32.5719 235.028 31.4789C235.028 31.2603 234.81 31.0417 234.81 31.0417C234.375 30.8231 233.939 30.6045 233.504 30.8231C232.85 31.2603 232.197 31.9161 231.762 32.3533L230.891 33.2278L229.802 32.3533C230.455 31.0417 231.326 29.2929 232.197 27.7626C233.068 26.2324 233.939 24.7022 234.592 22.9533C234.592 22.5161 234.375 22.2975 234.157 22.0789C233.939 22.0789 233.939 22.0789 233.721 22.2975C233.286 22.5161 232.85 22.5161 232.633 22.0789C232.415 21.8603 232.415 21.6417 232.415 21.2045V21.6417V21.4231C232.85 20.3301 233.286 19.0184 233.721 17.9254V17.7068C233.721 17.051 233.721 16.8324 233.068 16.6138C232.85 16.8324 232.415 17.2696 232.197 17.4882C231.762 18.144 231.109 18.7998 230.455 19.2371L230.02 19.6743L229.802 18.7998C229.802 18.5812 229.802 18.5812 229.802 18.3626C229.584 18.144 229.367 17.9254 229.367 17.7068V17.4882C229.367 17.051 229.584 16.6138 229.802 16.1766C230.02 15.958 230.02 15.7394 230.02 15.5208V15.3022C230.02 15.0836 230.02 15.0836 230.02 14.865H229.802C225.883 19.6743 221.746 25.1394 217.826 30.1673C210.858 39.7859 203.238 48.9673 195.181 57.4929C193.221 59.2417 191.262 60.5533 188.867 61.4278ZM176.891 109.084L176.673 107.772C189.955 105.586 200.842 93.5626 211.076 81.758L212.165 82.6324C201.931 94.6557 190.608 106.679 176.891 109.084ZM161.213 105.586C158.6 103.837 154.246 100.558 153.81 95.9673V95.7487C153.375 93.5626 152.504 90.9394 151.85 87.4417L153.157 87.2231C153.81 90.7208 154.463 93.5626 155.117 95.5301V95.7487C155.552 99.9022 159.471 102.963 161.867 104.493L161.213 105.586ZM135.302 73.2324L133.996 72.5766C139.004 62.0836 141.617 57.4929 143.794 57.2743C145.318 57.0557 146.407 58.1487 147.278 60.1161L145.971 60.7719C145.318 59.4603 144.665 58.8045 143.794 58.8045C142.27 58.8045 137.697 68.6417 135.302 73.2324ZM118.754 105.149L117.665 104.493C121.584 98.1533 125.504 90.7208 128.117 85.6929L129.423 86.3487C126.592 91.158 122.673 98.5905 118.754 105.149ZM100.028 121.763C96.7617 121.763 90.2295 119.358 88.7053 113.456C88.7053 113.456 84.3504 95.3115 82.3908 85.9115L83.6972 85.4743C85.8746 94.6557 90.0117 112.8 90.0117 113.018C91.5359 118.046 97.415 120.232 100.028 120.232C103.294 120.014 106.125 118.484 108.302 116.079L109.173 117.172C106.996 119.795 103.729 121.325 100.028 121.763ZM36.4472 137.939C36.2295 137.939 36.2295 137.939 36.0117 137.939C35.5762 137.721 35.3585 137.284 35.5762 136.846C38.6246 115.86 45.8101 95.3115 52.3424 78.0417C52.5601 77.6045 52.7778 76.9487 52.9956 76.0743C56.6972 65.5812 66.9311 37.1626 83.2617 37.1626C88.2698 37.1626 92.6246 44.8138 95.673 59.8975C95.673 60.3347 95.8908 60.5533 95.8908 60.7719C96.3262 62.3022 96.7617 64.051 97.1972 66.0185C97.4149 67.1115 97.6327 68.2045 98.0682 69.2975L96.7617 69.7347C96.544 68.6417 96.1085 67.3301 95.8908 66.2371C95.4553 64.2696 95.0198 62.5208 94.5843 60.9905C94.5843 60.7719 94.5843 60.5533 94.3666 60.1161C90.4472 41.3161 85.8746 38.4743 83.2617 38.4743C68.0198 38.4743 57.5682 67.1115 54.302 76.5115C54.0843 77.1673 53.8666 77.8231 53.6488 78.4789C47.1166 95.5301 40.3666 115.423 37.1004 135.753C37.3182 135.535 37.7537 135.316 38.1891 135.535C38.4069 135.098 38.6246 134.442 38.8424 134.004C39.0601 133.567 39.4956 132.474 39.9311 131.818L40.802 130.288L41.2375 131.818H41.4553C41.673 131.818 41.673 131.818 42.1085 131.163C42.3262 130.725 42.544 130.288 42.9795 129.632C43.6327 128.977 44.2859 128.321 44.9391 127.665C45.5924 127.228 46.2456 126.572 46.6811 125.916C49.0762 121.107 51.4714 115.86 53.8666 110.832C57.3504 103.181 60.8343 95.7487 63.6649 90.9394C63.8827 90.7208 64.1004 90.065 64.5359 89.1905C64.9714 88.3161 65.4069 87.4417 65.8424 86.5673L67.1488 87.2231C66.7133 88.3161 66.2779 89.1905 65.8424 89.8464C65.4069 90.5022 65.1891 91.3766 64.9714 91.5952C62.1408 96.4045 58.8746 103.618 55.173 111.27C52.7778 116.516 50.3827 121.763 47.9875 126.572C47.3343 127.446 46.6811 128.102 45.8101 128.758C45.1569 129.195 44.5037 129.851 44.0682 130.507C43.8504 130.944 43.6327 131.163 43.4149 131.6C42.9795 132.474 42.544 133.349 41.4553 133.349C41.2375 133.349 40.802 133.349 40.5843 133.349C40.3666 133.786 40.1488 134.223 40.1488 134.442C39.7133 135.316 39.4956 136.191 39.0601 136.846C38.8424 137.065 38.6246 137.284 38.1891 137.284C37.9714 137.284 37.9714 137.284 37.7537 137.065C37.3182 137.721 36.8827 137.939 36.4472 137.939ZM17.0682 55.744L8.79398 78.6975C7.70527 81.9766 6.61656 81.9766 3.78591 82.6324C2.6972 82.6324 2.26172 83.0696 2.26172 83.944C2.26172 84.8185 2.91494 85.0371 4.00365 85.0371C5.09236 85.0371 7.26978 84.8184 11.1891 84.8184C13.3666 84.8184 14.673 85.0371 15.1085 85.0371C15.9795 85.0371 16.6327 84.5998 16.6327 83.7254C16.6327 82.4138 15.544 82.6324 13.5843 82.4138C12.2778 82.1952 11.6246 81.5394 11.6246 80.4464C11.8424 78.0417 12.4956 75.8557 13.3666 73.6696L19.0278 57.2743L19.6811 79.5719C19.6811 80.4464 19.6811 81.5394 19.6811 83.0696C19.6811 84.5998 19.8988 84.8184 22.294 84.8184H22.7295C24.0359 84.8184 29.044 74.9812 42.1085 57.2743L36.2295 79.1347C35.5762 81.3208 34.923 81.9766 33.1811 82.4138C31.4391 82.851 30.5682 82.6324 30.5682 83.944C30.5682 84.8185 31.0037 85.2557 32.0924 85.2557C34.2698 84.8184 36.6649 84.8184 38.8424 84.8184C41.673 84.8184 44.5037 85.0371 47.3343 85.2557C48.2053 85.2557 48.6408 84.8184 48.6408 84.1626C48.6408 83.0696 47.552 83.2882 46.4633 82.851C45.3746 82.4138 44.9391 81.9766 44.9391 81.3208C44.9391 80.0091 45.3746 78.4789 45.5924 77.1673L51.4714 55.3068C52.1246 52.9022 53.2133 52.2464 54.9553 52.0278C56.044 51.8091 56.6972 51.5905 56.6972 50.7161C56.6972 49.8417 56.2617 49.6231 54.9553 49.6231C54.5198 49.6231 52.3424 49.8417 47.9875 49.8417H44.9391C44.2859 49.6231 43.4149 50.0603 43.1972 50.7161L28.173 72.5766L27.5198 50.9347C27.5198 49.8417 27.0843 49.6231 25.7778 49.6231C24.4714 49.6231 23.6004 49.8417 22.294 49.8417C19.8988 49.8417 17.2859 49.6231 14.8908 49.4045C13.802 49.4045 13.3666 49.8417 13.3666 50.7161C13.3666 52.0278 14.4553 51.8091 15.544 52.0278C16.6327 52.2464 17.0682 52.6836 17.0682 53.7766C17.7214 53.9952 17.5037 54.8696 17.0682 55.744ZM101.552 105.804C100.028 105.804 98.7214 106.242 97.4149 107.116C96.1085 107.991 95.4553 109.521 95.4553 111.051C95.4553 112.581 96.1085 114.111 97.1972 114.986C98.2859 115.86 99.8101 116.298 101.117 116.298C102.205 116.298 103.294 116.079 104.383 115.423C104.6 115.204 104.6 114.986 104.6 114.549V114.33C104.6 114.111 104.6 113.674 104.6 113.456C104.6 113.237 104.6 113.018 104.383 113.018C104.165 113.018 103.947 113.456 103.512 114.111C103.076 114.986 101.988 115.642 100.899 115.423C100.028 115.423 99.1569 114.986 98.5037 114.33C97.6327 113.237 97.1972 111.925 97.1972 110.614C97.1972 109.302 97.6327 107.991 98.5037 106.898C99.1569 106.242 100.028 105.804 101.117 105.804C102.205 105.804 103.076 106.46 103.729 107.335C103.947 107.772 104.165 107.991 104.383 107.991C104.6 107.991 104.6 107.991 104.6 107.772C104.6 106.898 104.6 106.242 104.383 106.023C103.512 106.023 102.641 105.804 101.552 105.804ZM138.568 107.991L145.1 116.516C145.318 116.735 145.318 116.735 145.536 116.735C145.754 116.735 145.971 116.516 145.971 116.298V108.209C145.971 107.116 145.971 106.679 146.842 106.679H147.06C147.278 106.679 147.278 106.679 147.278 106.46C147.278 106.242 147.06 106.242 146.842 106.242C146.625 106.242 146.189 106.242 145.536 106.242H144.229C143.794 106.242 143.794 106.242 143.794 106.46C143.794 106.679 144.012 106.679 144.229 106.679C144.883 106.679 145.318 106.679 145.318 107.116C145.318 107.553 145.318 107.772 145.318 108.209V113.237V113.456L140.092 106.46C139.875 106.242 139.875 106.242 139.875 106.242H137.262C137.044 106.242 137.044 106.242 137.044 106.46C137.044 106.679 137.262 106.679 137.915 106.679C138.568 106.679 138.35 106.898 138.35 107.335V113.893C138.35 115.204 138.35 115.642 137.479 115.642H137.262C137.044 115.642 136.826 115.642 136.826 115.86C136.826 116.079 137.044 116.079 137.262 116.079C137.479 116.079 138.133 116.079 138.568 116.079C139.004 116.079 139.657 116.079 139.875 116.079C140.092 116.079 140.31 116.079 140.31 115.86C140.31 115.642 140.092 115.642 139.875 115.642H139.439C138.568 115.642 138.568 115.204 138.568 114.111V107.991ZM156.423 106.023C154.899 106.023 153.592 106.46 152.286 107.335C150.979 108.209 150.326 109.739 150.326 111.27C150.326 112.8 150.979 114.33 152.068 115.204C153.157 116.079 154.681 116.516 155.988 116.516C157.076 116.516 158.165 116.298 159.254 115.642C159.471 115.423 159.471 115.204 159.471 114.767V114.549C159.471 114.33 159.471 113.893 159.471 113.674C159.471 113.456 159.471 113.237 159.254 113.237C159.036 113.237 158.818 113.674 158.383 114.33C157.947 115.204 156.858 115.86 155.77 115.642C154.899 115.642 154.028 115.204 153.375 114.549C152.504 113.456 152.068 112.144 152.286 110.832C152.286 109.521 152.721 108.209 153.592 107.116C154.246 106.46 155.117 106.023 156.205 106.023C157.294 106.023 158.165 106.679 158.818 107.553C159.036 107.991 159.254 108.209 159.471 108.209C159.689 108.209 159.689 108.209 159.689 107.991C159.689 107.116 159.471 106.46 159.471 106.242C158.383 106.242 157.512 106.023 156.423 106.023ZM70.8504 74.544C84.3504 73.2324 90.4472 71.0464 90.6649 64.9254C90.6649 61.2092 87.6166 58.5859 82.3908 58.5859C77.1649 58.5859 71.9391 60.5533 68.0198 64.051C64.3182 66.8929 61.923 71.4836 61.7053 76.2929C61.7053 82.4138 65.8424 86.1301 71.9391 86.3487C76.9472 86.3487 81.5198 84.1626 85.0037 80.4464C85.8746 79.7905 86.3101 78.9161 86.7456 77.8231C86.7456 77.3859 86.5279 77.1673 86.0924 77.1673H85.8746C85.2214 77.1673 84.5682 78.0417 83.2617 78.9161C81.302 80.8836 78.9069 81.9766 76.0762 82.4138C72.5924 82.4138 70.4149 80.0091 70.4149 75.8557C70.6327 75.4184 70.6327 74.9812 70.8504 74.544ZM71.2859 72.358C73.4633 64.7068 77.3827 60.7719 80.4311 60.7719C81.5198 60.7719 82.3908 61.6464 82.3908 63.1766C82.173 67.5487 77.8182 72.358 71.2859 72.358ZM120.713 60.5533C122.02 60.5533 122.891 61.4278 122.891 63.1766C122.891 65.144 121.149 69.0789 117.229 74.1068C114.399 77.6045 112.439 79.5719 110.479 79.5719C109.173 79.5719 108.52 78.6975 108.52 76.9487C108.955 73.0138 110.697 69.0789 113.31 66.0185C115.923 62.5208 118.318 60.7719 120.713 60.5533ZM119.842 73.6696L118.754 78.6975C118.318 80.2278 118.1 81.758 118.1 83.2882C117.883 84.8184 119.189 86.1301 120.496 86.3487C120.713 86.3487 120.713 86.3487 120.931 86.3487C124.415 86.1301 127.681 84.5998 130.076 81.9766C131.6 80.665 132.689 79.1347 133.342 77.3859C133.342 76.9487 133.125 76.7301 132.689 76.7301C131.818 76.7301 131.6 77.6045 130.512 78.9161C129.205 80.4464 128.117 81.3208 127.246 81.3208C126.81 81.3208 126.81 80.8836 126.81 80.2278C128.552 72.1394 130.947 64.2696 133.778 56.3998L137.044 47.4371C137.262 46.9998 137.262 46.7812 137.262 46.344C137.262 45.9068 136.826 45.6882 136.608 45.6882C133.125 46.9998 129.423 47.6557 125.721 47.6557C123.979 47.6557 123.108 47.6557 123.108 48.9673C123.108 49.4045 123.544 49.6231 124.415 49.8417C125.939 50.2789 126.81 50.2789 126.81 50.9347C126.81 51.8091 126.592 52.6836 126.157 53.558L123.762 60.1161C122.238 59.4603 120.496 59.0231 118.971 59.0231C113.528 59.4603 108.738 61.865 105.036 65.7998C101.117 69.2975 98.9391 74.1068 98.7214 79.3533C98.7214 83.7254 101.117 86.5673 104.383 86.5673C108.955 86.1301 113.963 81.9766 119.842 73.6696ZM131.6 109.302V112.581C131.6 113.456 131.6 114.33 131.165 115.204C130.512 115.86 129.641 116.298 128.77 116.298C126.592 116.298 126.157 115.423 126.157 113.237V107.553C126.157 106.898 126.157 106.898 126.592 106.898C127.028 106.898 127.463 106.898 127.463 106.679C127.463 106.46 127.463 106.46 127.246 106.46C126.592 106.46 125.939 106.679 125.286 106.679C124.633 106.679 123.979 106.679 123.326 106.46C123.108 106.46 123.108 106.46 123.108 106.679C123.108 106.898 123.544 106.898 123.979 106.898C124.415 106.898 124.415 107.116 124.415 107.553V113.237C124.415 114.111 124.415 114.767 124.85 115.642C125.721 116.516 127.028 116.953 128.334 116.735C129.641 116.953 130.729 116.516 131.6 115.642C132.036 114.767 132.254 113.674 132.036 112.8V109.302C132.036 107.991 132.036 107.335 132.471 107.116C132.907 106.898 133.56 107.116 133.56 106.898C133.56 106.679 133.342 106.679 133.125 106.679H131.6C130.947 106.679 130.512 106.679 130.294 106.679C130.076 106.679 129.858 106.679 129.858 106.898C129.858 107.116 130.512 107.116 130.947 107.335C131.383 107.553 131.383 107.991 131.383 109.302H131.6ZM114.181 105.804C112.875 105.804 111.35 106.242 110.262 107.116C108.084 109.084 107.867 112.363 109.826 114.549C110.044 114.767 110.262 114.986 110.262 114.986C111.35 115.86 112.657 116.516 113.963 116.516C115.27 116.516 116.794 116.079 117.883 115.204C118.971 114.33 119.625 112.8 119.625 111.27C119.625 109.739 118.971 108.209 117.883 107.335C117.012 106.46 115.705 105.804 114.181 105.804ZM114.181 116.079C112.004 116.079 110.479 114.111 110.479 111.051C110.479 107.991 112.004 106.46 113.963 106.46C115.923 106.46 117.665 108.209 117.665 111.488C117.665 114.767 116.141 116.079 114.181 116.079ZM170.794 76.0743L175.149 61.4278C175.149 61.2091 175.149 60.9905 175.149 60.9905C175.149 60.5533 174.931 60.3347 174.278 60.3347H168.834C167.963 60.3347 167.31 60.7719 166.875 61.4278C166.221 64.2696 165.133 66.8929 164.044 69.5161C160.125 78.0417 154.899 82.4138 153.592 82.1952C153.157 82.1952 152.721 81.9766 152.504 81.3208V81.1022C152.504 80.0091 152.939 79.1347 153.157 78.0417L156.641 68.8603C157.512 66.8929 157.947 64.9254 158.383 62.958C158.383 60.5533 157.076 59.2417 154.463 59.2417C151.415 59.4603 148.367 60.7719 146.407 62.958C145.1 64.051 144.012 65.5812 143.359 67.1115C143.359 67.5487 143.576 67.7673 144.012 67.7673C145.1 67.7673 145.536 66.4557 146.625 65.3626C147.496 64.2696 148.584 63.6138 149.673 63.1766C150.326 63.3952 150.326 63.3952 150.326 63.8324C150.326 65.3626 149.891 66.8929 149.02 68.2045L145.754 76.5115C145.1 78.0417 144.665 79.7905 144.665 81.5394C144.665 84.5998 146.189 86.1301 149.455 86.1301C154.246 86.1301 158.818 82.1952 163.826 74.3254L163.173 77.3859C162.738 79.1347 162.52 80.665 162.52 82.4138C162.52 84.5998 164.044 86.1301 167.092 86.1301C172.318 85.9115 176.891 83.2882 179.721 78.9161C184.512 72.7952 186.689 66.8929 186.689 63.6138C186.689 60.3347 185.165 59.0231 182.988 59.0231C181.246 58.8045 179.939 60.1161 179.721 61.865C179.721 62.0836 179.721 62.0836 179.721 62.3022C179.721 64.4882 182.117 66.4557 182.117 69.0789C181.463 73.2324 179.504 76.9487 176.455 80.0091C175.367 81.5394 173.842 82.4138 171.883 82.851C171.012 82.851 170.141 81.9766 170.141 80.4464C170.141 78.9161 170.359 77.6045 170.794 76.0743ZM216.084 74.1068L214.778 78.9161C214.342 80.4464 213.907 82.1952 213.907 83.7254C213.907 85.2557 215.213 86.3487 216.52 86.3487H216.738C220.221 86.1301 223.488 84.5998 225.883 81.9766C227.407 80.665 228.496 79.1347 229.149 77.3859C229.149 76.9487 228.931 76.7301 228.496 76.7301C227.625 76.7301 227.407 77.8231 226.318 78.9161C225.229 80.0091 224.358 80.8836 223.488 80.8836C222.617 80.8836 222.617 80.4464 222.617 79.5719C222.617 78.9161 222.834 78.0417 223.052 77.3859L228.496 60.9905C228.713 60.5533 228.713 60.1161 228.931 59.6789C228.931 59.0231 228.496 59.0231 227.189 59.0231H222.181C221.31 59.0231 221.092 59.0231 220.657 59.8975L220.004 60.9905C218.479 60.1161 216.955 59.4603 215.213 59.4603C210.641 59.4603 205.197 61.865 200.407 66.8929C196.705 70.1719 194.528 74.7626 194.31 79.7905C194.31 84.1626 196.705 86.7859 200.189 86.7859C204.979 86.3487 210.205 82.1952 216.084 74.1068ZM216.52 60.9905C218.044 60.9905 218.915 62.0836 218.915 63.8324C218.915 65.5812 217.173 69.7347 212.818 75.1998C209.988 78.9161 207.81 80.8836 205.633 80.8836C204.326 80.8836 203.455 79.7905 203.455 78.0417C204.109 73.6696 206.068 69.7347 208.681 66.4557C211.512 62.7394 214.125 60.9905 216.52 60.9905ZM254.189 81.3208V77.8231C253.971 64.9254 253.318 59.2417 248.092 59.2417C245.044 59.2417 242.213 60.9905 240.689 63.3952C239.6 64.4882 238.947 65.7998 238.512 67.3301C238.512 67.9859 238.729 68.2045 239.165 68.2045C240.254 68.2045 240.471 67.1115 241.342 65.7998C242.213 64.4882 242.649 64.051 243.302 64.051C244.608 64.051 245.044 65.7998 245.697 69.0789C246.568 73.2324 246.786 77.6045 246.786 81.9766C246.786 90.5022 243.302 94.8743 240.254 94.8743C239.165 94.8743 238.512 93.9998 236.988 92.6882C236.117 92.0324 235.246 91.8138 234.375 91.8138C232.633 91.5952 231.326 92.9068 231.108 94.4371V94.6557C231.108 96.8417 232.85 98.3719 235.899 98.3719C242.867 98.3719 248.528 92.4696 256.802 81.9766C263.334 73.6696 266.6 67.7673 266.6 63.8324C266.6 61.2092 265.294 59.6789 263.334 59.6789C261.375 59.6789 259.85 61.2091 259.85 63.1766V63.3952C259.85 64.9254 261.157 67.1115 261.157 69.5161C261.157 71.9208 258.762 76.0743 254.189 81.3208ZM166.439 114.767V107.335C166.439 106.898 166.439 106.679 166.875 106.679C167.31 106.679 167.746 106.679 167.746 106.46C167.746 106.242 167.746 106.242 167.528 106.242C166.221 106.46 164.915 106.46 163.608 106.242C163.391 106.242 163.391 106.242 163.391 106.46C163.391 106.679 163.826 106.679 164.262 106.679C164.697 106.679 164.697 106.898 164.697 107.335V114.549C164.697 115.204 164.697 115.423 164.044 115.642C163.391 115.86 163.391 115.642 163.391 115.86C163.391 116.079 163.608 116.079 163.826 116.079C164.044 116.079 164.697 116.079 165.786 116.079C166.875 116.079 167.528 116.079 167.746 116.079C167.963 116.079 168.181 116.079 168.181 115.86C168.181 115.642 167.746 115.642 167.528 115.642C167.31 115.642 166.439 115.642 166.439 114.767ZM174.06 114.767V107.553C174.06 106.898 174.06 106.898 174.496 106.898C174.931 106.898 175.367 106.898 175.367 106.679C175.367 106.46 175.367 106.46 175.149 106.46C174.496 106.46 173.842 106.679 173.189 106.679C172.536 106.679 171.883 106.679 171.229 106.46C171.012 106.46 171.012 106.46 171.012 106.679C171.012 106.898 171.229 106.898 171.665 106.898C172.1 106.898 172.1 107.116 172.1 107.553V114.767C172.1 115.423 172.1 115.642 171.447 115.86C170.794 116.079 170.794 115.86 170.794 116.079C170.794 116.298 171.012 116.298 171.229 116.298C171.447 116.298 172.1 116.298 173.189 116.298C175.367 116.298 177.108 116.516 177.979 116.516C178.415 116.516 178.415 116.516 178.415 116.079L178.633 114.549V114.33C178.633 114.33 178.633 114.111 178.415 114.111C178.197 114.111 177.979 114.767 177.109 115.423C176.673 115.86 176.02 116.079 175.149 116.079C174.496 116.079 174.06 115.642 174.06 114.767Z" fill="black"/>
</svg>
